<svg xmlns="http://www.w3.org/2000/svg" viewBox="0 0 1387 429" width="1387" height="429"><defs></defs><g transform="matrix(1,0,0,1,-80.585587275,-304.117492591)">
<g transform="matrix(1,0,0,1,69,292)">
	<g>
		<path d="M70.585587,643.913419L 74.907154,635.270285 L 77.788198,628.067675 L 84.990809,613.662453 L 95.074464,593.495142 L 106.598642,570.446787 L 123.884908,534.433732 L 135.409086,505.623288 L 149.814308,466.729189 L 162.779007,433.597179 L 171.422141,413.429868 L 178.624751,390.381513 L 182.946318,378.857336 L 187.267885,367.333158 L 188.708407,361.571070 L 190.148929,357.249503 L 188.708407,355.808981 L 187.267885,355.808981 L 185.827362,358.690025 L 181.505796,364.452114 L 177.184229,371.654725 L 168.541096,391.822035 L 157.016919,424.954046 L 148.373785,453.764490 L 139.730652,485.455978 L 129.646997,527.231121 L 123.884908,563.244176 L 122.444386,586.292531 L 123.884908,612.221930 L 125.325430,626.627152 L 128.206475,639.591852 L 132.528041,645.353941 L 136.849608,645.353941 L 144.052219,641.032374 L 158.457441,625.186630 L 172.862663,605.019320 L 182.946318,587.733053 L 193.029973,571.887309 L 197.351540,561.803654 L 200.232584,553.160521 L 201.673107,544.517388 L 203.113629,540.195821 L 204.554151,537.314777 L 204.554151,534.433732 L 204.554151,531.552688 L 204.554151,530.112166 L 204.554151,528.671643 L 205.994673,527.231121 L 204.554151,527.231121 L 204.554151,528.671643 L 203.113629,534.433732 L 200.232584,541.636343 L 195.911018,558.922609 L 190.148929,577.649398 L 185.827362,600.697753 L 184.386840,616.543497 L 187.267885,626.627152 L 193.029973,632.389241 L 198.792062,632.389241 L 211.756762,625.186630 L 227.602506,610.781408 L 237.686161,597.816709 L 247.769817,581.970964 L 253.531905,570.446787 L 260.734516,556.041565 L 266.496605,544.517388 L 270.818172,537.314777 L 272.258694,532.993210 L 275.139738,528.671643 L 276.580260,527.231121 L 276.580260,525.790599 L 276.580260,524.350077 L 278.020783,524.350077 L 278.020783,522.909555 L 278.020783,521.469033 L 278.020783,520.028510 L 278.020783,518.587988 L 276.580260,522.909555 L 275.139738,534.433732 L 273.699216,551.719998 L 269.377649,579.089920 L 267.937127,602.138275 L 266.496605,625.186630 L 266.496605,636.710808 L 266.496605,642.472896 L 267.937127,645.353941 L 272.258694,641.032374 L 276.580260,632.389241 L 280.901827,625.186630 L 289.544960,607.900364 L 299.628615,592.054620 L 312.593315,571.887309 L 328.439059,551.719998 L 339.963237,538.755299 L 351.487414,528.671643 L 360.130547,522.909555 L 363.011592,521.469033 L 365.892636,524.350077 L 365.892636,532.993210 L 364.452114,553.160521 L 358.690025,580.530442 L 355.808981,594.935664 L 354.368459,609.340886 L 354.368459,616.543497 L 357.249503,616.543497 L 367.333158,606.459842 L 383.178902,590.614098 L 406.227257,566.125220 L 424.954046,550.279476 L 442.240312,538.755299 L 446.561879,545.957910 L 442.240312,566.125220 L 432.156657,602.138275 L 423.513524,628.067675 L 420.632479,636.710808 L 422.073001,635.270285 " transform="matrix(1,0,0,1,-59,-312)" fill="none" stroke="#000000" stroke-width="12" stroke-linecap="round" stroke-linejoin="bevel"/>
		<path d="M99.396031,373.095247L 105.158120,373.095247 L 126.765953,367.333158 L 167.100574,357.249503 L 200.232584,347.165848 L 239.126683,335.641670 L 259.293994,329.879581 L 270.818172,324.117493 L 272.258694,324.117493 " transform="matrix(1,0,0,1,-59,-312)" fill="none" stroke="#000000" stroke-width="12" stroke-linecap="round" stroke-linejoin="bevel"/>
		<path d="M205.994673,475.372322L 208.875717,472.491278 L 217.518851,466.729189 L 229.043028,459.526578 L 237.686161,455.205012 L 240.567206,455.205012 " transform="matrix(1,0,0,1,-59,-312)" fill="none" stroke="#000000" stroke-width="12" stroke-linecap="round" stroke-linejoin="bevel"/>
		<path d="M674.164385,370.214203L 674.164385,371.654725 L 672.723862,380.297858 L 669.842818,413.429868 L 664.080729,452.323967 L 655.437596,515.706944 L 649.675507,554.601043 L 645.353941,592.054620 L 642.472896,612.221930 L 642.472896,619.424541 L 643.913419,623.746108 L 645.353941,626.627152 " transform="matrix(1,0,0,1,-59,-312)" fill="none" stroke="#000000" stroke-width="12" stroke-linecap="round" stroke-linejoin="bevel"/>
		<path d="M800.930337,386.059947L 799.489815,393.262558 L 796.608771,404.786735 L 792.287204,422.073001 L 787.965638,448.002401 L 783.644071,473.931800 L 779.322504,494.099111 L 775.000938,521.469033 L 773.560416,535.874254 L 772.119893,556.041565 L 770.679371,574.768354 L 770.679371,586.292531 L 770.679371,596.376186 L 770.679371,606.459842 L 769.238849,612.221930 L 769.238849,616.543497 L 769.238849,617.984019 L 769.238849,619.424541 L 769.238849,620.865064 L 767.798327,622.305586 L 769.238849,622.305586 L 770.679371,620.865064 L 772.119893,616.543497 L 775.000938,612.221930 L 776.441460,607.900364 L 780.763027,597.816709 L 782.203549,586.292531 L 785.084593,566.125220 L 785.084593,550.279476 L 782.203549,534.433732 L 776.441460,521.469033 L 770.679371,514.266422 L 757.714672,501.301722 L 743.309450,492.658589 L 723.142139,482.574933 L 707.296395,481.134411 L 697.212740,481.134411 L 687.129084,484.015456 L 681.366996,485.455978 L 675.604907,485.455978 L 674.164385,486.896500 L 671.283340,486.896500 L 668.402296,488.337022 L 666.961774,489.777544 L 665.521251,491.218067 L 664.080729,491.218067 L 665.521251,492.658589 L 672.723862,494.099111 L 682.807518,494.099111 L 708.736917,495.539633 L 728.904228,495.539633 L 754.833627,494.099111 L 773.560416,494.099111 L 795.168248,492.658589 L 815.335559,491.218067 L 826.859737,489.777544 L 841.264959,489.777544 L 849.908092,489.777544 L 859.991747,489.777544 L 865.753836,489.777544 L 870.075402,488.337022 L 872.956447,488.337022 L 875.837491,488.337022 L 877.278013,486.896500 L 878.718535,486.896500 L 880.159058,486.896500 L 881.599580,486.896500 L 881.599580,485.455978 L 883.040102,485.455978 L 881.599580,484.015456 L 881.599580,482.574933 L 880.159058,482.574933 L 877.278013,482.574933 L 875.837491,481.134411 L 874.396969,481.134411 L 871.515925,482.574933 L 870.075402,484.015456 L 867.194358,485.455978 L 864.313314,486.896500 L 859.991747,491.218067 L 852.789136,499.861200 L 845.586525,508.504333 L 836.943392,521.469033 L 826.859737,541.636343 L 818.216604,560.363132 L 812.454515,573.327831 L 808.132948,589.173575 L 808.132948,602.138275 L 809.573470,609.340886 L 813.895037,615.102975 L 818.216604,616.543497 L 828.300259,610.781408 L 844.146003,596.376186 L 852.789136,583.411487 L 859.991747,564.684698 L 865.753836,541.636343 L 868.634880,527.231121 L 872.956447,511.385377 L 875.837491,504.182766 L 877.278013,495.539633 L 877.278013,491.218067 L 875.837491,486.896500 L 875.837491,484.015456 L 875.837491,482.574933 L 875.837491,481.134411 L 874.396969,479.693889 L 872.956447,478.253367 L 872.956447,479.693889 L 871.515925,481.134411 L 871.515925,484.015456 L 871.515925,489.777544 L 870.075402,495.539633 L 868.634880,509.944855 L 868.634880,530.112166 L 867.194358,544.517388 L 867.194358,564.684698 L 868.634880,577.649398 L 871.515925,592.054620 L 872.956447,602.138275 L 875.837491,612.221930 L 880.159058,616.543497 L 884.480624,617.984019 L 893.123757,613.662453 L 900.326368,605.019320 L 913.291068,592.054620 L 923.374723,579.089920 L 930.577334,567.565743 L 939.220467,547.398432 L 947.863601,527.231121 L 953.625689,515.706944 L 957.947256,507.063811 L 960.828300,501.301722 L 959.387778,498.420677 L 959.387778,495.539633 L 956.506734,491.218067 L 953.625689,486.896500 L 952.185167,485.455978 L 950.744645,484.015456 L 949.304123,482.574933 L 949.304123,481.134411 L 947.863601,481.134411 L 946.423078,481.134411 L 946.423078,482.574933 L 946.423078,484.015456 L 947.863601,485.455978 L 949.304123,485.455978 L 955.066212,486.896500 L 963.709345,486.896500 L 972.352478,486.896500 L 985.317177,486.896500 L 995.400833,484.015456 L 1001.162922,482.574933 L 1005.484488,479.693889 L 1008.365533,479.693889 L 1011.246577,478.253367 L 1012.687099,478.253367 L 1014.127621,476.812845 L 1015.568143,476.812845 L 1015.568143,478.253367 L 1014.127621,479.693889 L 1012.687099,482.574933 L 1011.246577,485.455978 L 1009.806055,491.218067 L 1006.925010,504.182766 L 1001.162922,522.909555 L 998.281877,535.874254 L 996.841355,551.719998 L 995.400833,561.803654 L 996.841355,571.887309 L 996.841355,579.089920 L 998.281877,586.292531 L 999.722399,590.614098 L 1001.162922,592.054620 L 1005.484488,589.173575 L 1014.127621,581.970964 L 1024.211277,571.887309 L 1040.057021,556.041565 L 1054.462243,541.636343 L 1068.867464,525.790599 L 1073.189031,521.469033 L 1078.951120,515.706944 L 1084.713209,508.504333 L 1090.475297,502.742244 L 1093.356342,499.861200 L 1097.677908,496.980155 L 1100.558953,494.099111 L 1101.999475,492.658589 L 1104.880519,491.218067 L 1104.880519,489.777544 L 1106.321041,488.337022 L 1107.761564,486.896500 L 1109.202086,486.896500 L 1109.202086,485.455978 L 1107.761564,485.455978 L 1104.880519,486.896500 L 1099.118430,491.218067 L 1094.796864,495.539633 L 1083.272686,507.063811 L 1067.426942,525.790599 L 1057.343287,541.636343 L 1045.819109,564.684698 L 1038.616498,581.970964 L 1035.735454,590.614098 L 1035.735454,600.697753 L 1037.175976,606.459842 L 1041.497543,609.340886 L 1048.700154,606.459842 L 1057.343287,597.816709 L 1073.189031,581.970964 L 1087.594253,558.922609 L 1097.677908,540.195821 L 1112.083130,509.944855 L 1120.726263,484.015456 L 1135.131485,452.323967 L 1143.774618,432.156657 L 1150.977229,414.870391 L 1155.298796,403.346213 L 1156.739318,396.143602 L 1156.739318,387.500469 L 1155.298796,381.738380 L 1153.858274,378.857336 L 1150.977229,377.416814 L 1146.655663,378.857336 L 1140.893574,387.500469 L 1132.250441,409.108302 L 1123.607308,432.156657 L 1113.523652,465.288667 L 1103.439997,501.301722 L 1099.118430,525.790599 L 1097.677908,551.719998 L 1100.558953,566.125220 L 1103.439997,581.970964 L 1107.761564,593.495142 L 1112.083130,597.816709 L 1117.845219,599.257231 L 1125.047830,597.816709 L 1132.250441,594.935664 L 1140.893574,590.614098 L 1146.655663,586.292531 " transform="matrix(1,0,0,1,-59,-312)" fill="none" stroke="#000000" stroke-width="12" stroke-linecap="round" stroke-linejoin="bevel"/>
		<path d="M1138.012530,587.733053L 1140.893574,584.852009 L 1143.774618,580.530442 L 1150.977229,571.887309 L 1156.739318,566.125220 L 1161.060885,557.482087 L 1165.382451,547.398432 L 1168.263496,540.195821 L 1171.144540,531.552688 L 1174.025584,522.909555 L 1175.466106,514.266422 L 1176.906629,509.944855 L 1178.347151,505.623288 L 1178.347151,504.182766 L 1179.787673,501.301722 L 1179.787673,498.420677 L 1179.787673,496.980155 L 1179.787673,494.099111 L 1179.787673,492.658589 L 1181.228195,491.218067 L 1179.787673,491.218067 L 1179.787673,494.099111 L 1178.347151,496.980155 L 1175.466106,501.301722 L 1174.025584,508.504333 L 1171.144540,521.469033 L 1169.704018,532.993210 L 1169.704018,548.838954 L 1169.704018,564.684698 L 1172.585062,574.768354 L 1176.906629,586.292531 L 1182.668717,590.614098 L 1188.430806,593.495142 L 1198.514461,589.173575 L 1207.157595,581.970964 L 1218.681772,570.446787 L 1225.884383,560.363132 L 1233.086994,548.838954 L 1238.849083,535.874254 L 1241.730127,527.231121 L 1244.611172,520.028510 L 1246.051694,512.825899 L 1247.492216,507.063811 L 1248.932738,504.182766 L 1248.932738,501.301722 L 1248.932738,498.420677 L 1248.932738,496.980155 L 1248.932738,495.539633 L 1247.492216,495.539633 L 1247.492216,494.099111 L 1247.492216,492.658589 L 1247.492216,494.099111 L 1247.492216,499.861200 L 1246.051694,512.825899 L 1244.611172,530.112166 L 1243.170649,548.838954 L 1241.730127,570.446787 L 1240.289605,587.733053 L 1241.730127,599.257231 L 1241.730127,609.340886 L 1243.170649,615.102975 L 1244.611172,616.543497 L 1247.492216,612.221930 L 1251.813782,605.019320 L 1259.016393,587.733053 L 1269.100049,564.684698 L 1277.743182,550.279476 L 1287.826837,535.874254 L 1297.910493,524.350077 L 1305.113104,515.706944 L 1315.196759,507.063811 L 1320.958848,502.742244 L 1326.720936,496.980155 L 1329.601981,494.099111 L 1331.042503,492.658589 L 1332.483025,492.658589 L 1333.923547,495.539633 L 1332.483025,499.861200 L 1329.601981,512.825899 L 1328.161459,527.231121 L 1323.839892,547.398432 L 1320.958848,561.803654 L 1318.077803,577.649398 L 1316.637281,590.614098 L 1316.637281,597.816709 L 1315.196759,605.019320 L 1315.196759,609.340886 L 1315.196759,610.781408 L 1315.196759,612.221930 L 1316.637281,610.781408 L 1318.077803,609.340886 L 1320.958848,603.578797 L 1323.839892,597.816709 L 1329.601981,586.292531 L 1338.245114,571.887309 L 1344.007203,561.803654 L 1349.769291,550.279476 L 1356.971902,537.314777 L 1364.174513,527.231121 L 1369.936602,521.469033 L 1374.258169,515.706944 L 1377.139213,511.385377 L 1380.020257,509.944855 L 1381.460780,508.504333 L 1382.901302,507.063811 L 1382.901302,505.623288 L 1384.341824,504.182766 L 1385.782346,504.182766 L 1387.222868,502.742244 L 1388.663390,501.301722 L 1390.103913,501.301722 L 1391.544435,499.861200 L 1392.984957,498.420677 L 1394.425479,496.980155 L 1395.866001,495.539633 L 1394.425479,495.539633 L 1392.984957,495.539633 L 1390.103913,496.980155 L 1387.222868,498.420677 L 1382.901302,501.301722 L 1375.698691,509.944855 L 1365.615035,527.231121 L 1358.412425,543.076865 L 1351.209814,564.684698 L 1348.328769,581.970964 L 1348.328769,593.495142 L 1351.209814,603.578797 L 1355.531380,609.340886 L 1359.852947,607.900364 L 1369.936602,597.816709 L 1378.579735,581.970964 L 1390.103913,553.160521 L 1400.187568,528.671643 L 1404.509135,517.147466 L 1408.830701,508.504333 L 1410.271223,502.742244 L 1411.711746,501.301722 L 1411.711746,496.980155 L 1411.711746,494.099111 L 1411.711746,488.337022 L 1411.711746,485.455978 L 1411.711746,481.134411 L 1411.711746,478.253367 L 1410.271223,481.134411 L 1410.271223,491.218067 L 1408.830701,508.504333 L 1404.509135,540.195821 L 1401.628090,567.565743 L 1397.306524,609.340886 L 1390.103913,651.116030 L 1384.341824,678.485951 L 1378.579735,708.736917 L 1372.817646,730.344750 L 1369.936602,740.428405 L 1365.615035,749.071538 L 1361.293469,753.393105 L 1358.412425,753.393105 L 1352.650336,750.512061 L 1348.328769,746.190494 L 1344.007203,738.987883 L 1342.566680,731.785272 L 1344.007203,714.499006 L 1352.650336,684.248040 L 1365.615035,659.759163 L 1385.782346,630.948719 L 1407.390179,610.781408 L 1427.557490,593.495142 L 1444.843756,580.530442 L 1457.808456,571.887309 " transform="matrix(1,0,0,1,-59,-312)" fill="none" stroke="#000000" stroke-width="12" stroke-linecap="round" stroke-linejoin="bevel"/>
		<path d="M1175.466106,453.764490L 1176.906629,453.764490 L 1182.668717,452.323967 L 1195.633417,446.561879 L 1215.800728,433.597179 L 1225.884383,427.835090 L 1230.205950,423.513524 " transform="matrix(1,0,0,1,-59,-312)" fill="none" stroke="#000000" stroke-width="12" stroke-linecap="round" stroke-linejoin="bevel"/>
	</g>
</g></g></svg>